<?xml version="1.0" encoding="UTF-8" standalone="no"?>
<!DOCTYPE svg PUBLIC "-//W3C//DTD SVG 1.1//EN" "http://www.w3.org/Graphics/SVG/1.1/DTD/svg11.dtd">
<svg width="200px" height="70px" viewBox="0 0 200 70" version="1.1" xmlns="http://www.w3.org/2000/svg" xmlns:xlink="http://www.w3.org/1999/xlink" xml:space="preserve" xmlns:serif="http://www.serif.com/" style="fill-rule:evenodd;clip-rule:evenodd;stroke-linejoin:round;stroke-miterlimit:2;">
    <g transform="matrix(1.9044,0,0,1.9044,-16.6178,-8.51414)">
        <g transform="matrix(14,0,0,14,8.72602,27.4332)">
            <path d="M0.091,-0.708L0.337,-0.708C0.368,-0.708 0.396,-0.704 0.423,-0.697C0.449,-0.69 0.472,-0.679 0.491,-0.665C0.509,-0.65 0.525,-0.632 0.536,-0.61C0.547,-0.587 0.552,-0.561 0.552,-0.531C0.552,-0.49 0.541,-0.457 0.518,-0.432C0.495,-0.406 0.466,-0.387 0.43,-0.375L0.43,-0.373C0.451,-0.372 0.471,-0.366 0.49,-0.357C0.509,-0.347 0.525,-0.334 0.539,-0.319C0.552,-0.303 0.563,-0.285 0.571,-0.264C0.579,-0.243 0.583,-0.221 0.583,-0.197C0.583,-0.165 0.576,-0.137 0.564,-0.113C0.551,-0.088 0.533,-0.068 0.51,-0.051C0.487,-0.034 0.461,-0.022 0.431,-0.013C0.401,-0.004 0.369,-0 0.334,-0L0.091,-0L0.091,-0.708ZM0.187,-0.414L0.318,-0.414C0.336,-0.414 0.353,-0.416 0.369,-0.42C0.385,-0.423 0.399,-0.429 0.411,-0.438C0.423,-0.447 0.432,-0.458 0.44,-0.471C0.447,-0.484 0.45,-0.501 0.45,-0.52C0.45,-0.548 0.441,-0.572 0.423,-0.593C0.405,-0.614 0.377,-0.624 0.338,-0.624L0.187,-0.624L0.187,-0.414ZM0.187,-0.084L0.328,-0.084C0.343,-0.084 0.359,-0.086 0.377,-0.089C0.394,-0.091 0.411,-0.097 0.426,-0.107C0.441,-0.115 0.454,-0.128 0.465,-0.143C0.476,-0.158 0.481,-0.179 0.481,-0.204C0.481,-0.246 0.467,-0.278 0.44,-0.299C0.413,-0.32 0.376,-0.33 0.329,-0.33L0.187,-0.33L0.187,-0.084Z" style="fill-rule:nonzero;"/>
        </g>
        <g transform="matrix(14,0,0,14,17.546,27.4332)">
            <path d="M0.091,-0.708L0.187,-0.708L0.187,-0.09L0.512,-0.09L0.512,-0L0.091,-0L0.091,-0.708Z" style="fill-rule:nonzero;"/>
        </g>
        <g transform="matrix(14,0,0,14,24.812,27.4332)">
            <path d="M0.174,-0.708L0.174,-0.274C0.174,-0.252 0.177,-0.229 0.183,-0.206C0.189,-0.182 0.199,-0.16 0.213,-0.14C0.227,-0.12 0.245,-0.104 0.268,-0.091C0.291,-0.078 0.319,-0.072 0.352,-0.072C0.385,-0.072 0.413,-0.078 0.436,-0.091C0.459,-0.104 0.477,-0.12 0.491,-0.14C0.505,-0.16 0.515,-0.182 0.521,-0.206C0.527,-0.229 0.53,-0.252 0.53,-0.274L0.53,-0.708L0.626,-0.708L0.626,-0.259C0.626,-0.218 0.619,-0.18 0.605,-0.147C0.591,-0.113 0.572,-0.084 0.547,-0.059C0.522,-0.034 0.493,-0.015 0.46,-0.002C0.427,0.011 0.391,0.018 0.352,0.018C0.313,0.018 0.277,0.011 0.244,-0.002C0.211,-0.015 0.182,-0.034 0.157,-0.059C0.132,-0.084 0.113,-0.113 0.099,-0.147C0.085,-0.18 0.078,-0.218 0.078,-0.259L0.078,-0.708L0.174,-0.708Z" style="fill-rule:nonzero;"/>
        </g>
        <g transform="matrix(14,0,0,14,34.668,27.4332)">
            <path d="M0.084,-0.708L0.227,-0.708L0.452,-0.172L0.456,-0.172L0.679,-0.708L0.822,-0.708L0.822,-0L0.726,-0L0.726,-0.582L0.724,-0.582L0.485,-0L0.421,-0L0.182,-0.582L0.18,-0.582L0.18,-0L0.084,-0L0.084,-0.708Z" style="fill-rule:nonzero;"/>
        </g>
        <g transform="matrix(14,0,0,14,47.352,27.4332)">
            <path d="M0.091,-0.708L0.548,-0.708L0.548,-0.618L0.187,-0.618L0.187,-0.407L0.523,-0.407L0.523,-0.317L0.187,-0.317L0.187,-0.09L0.566,-0.09L0.566,-0L0.091,-0L0.091,-0.708Z" style="fill-rule:nonzero;"/>
        </g>
        <g transform="matrix(14,0,0,14,55.906,27.4332)">
            <path d="M0.091,-0.708L0.217,-0.708L0.607,-0.126L0.609,-0.126L0.609,-0.708L0.705,-0.708L0.705,-0L0.583,-0L0.189,-0.582L0.187,-0.582L0.187,-0L0.091,-0L0.091,-0.708Z" style="fill-rule:nonzero;"/>
        </g>
        <g transform="matrix(14,0,0,14,67.05,27.4332)">
            <path d="M0.112,-0.148C0.129,-0.122 0.152,-0.103 0.179,-0.091C0.206,-0.078 0.233,-0.072 0.262,-0.072C0.278,-0.072 0.294,-0.075 0.311,-0.08C0.328,-0.085 0.343,-0.092 0.357,-0.102C0.37,-0.112 0.381,-0.124 0.39,-0.139C0.399,-0.154 0.403,-0.171 0.403,-0.19C0.403,-0.217 0.394,-0.238 0.377,-0.253C0.36,-0.267 0.338,-0.279 0.313,-0.289C0.287,-0.298 0.259,-0.308 0.229,-0.317C0.198,-0.326 0.17,-0.338 0.145,-0.354C0.119,-0.37 0.097,-0.392 0.08,-0.419C0.063,-0.446 0.054,-0.482 0.054,-0.528C0.054,-0.549 0.058,-0.571 0.068,-0.594C0.077,-0.617 0.091,-0.639 0.11,-0.658C0.129,-0.677 0.154,-0.694 0.185,-0.707C0.215,-0.72 0.251,-0.726 0.294,-0.726C0.333,-0.726 0.37,-0.721 0.405,-0.71C0.44,-0.699 0.471,-0.678 0.498,-0.645L0.42,-0.574C0.408,-0.593 0.391,-0.608 0.369,-0.619C0.347,-0.63 0.322,-0.636 0.294,-0.636C0.267,-0.636 0.245,-0.632 0.228,-0.626C0.21,-0.619 0.196,-0.61 0.185,-0.599C0.174,-0.588 0.167,-0.576 0.163,-0.563C0.158,-0.55 0.156,-0.539 0.156,-0.528C0.156,-0.498 0.165,-0.475 0.182,-0.459C0.199,-0.443 0.221,-0.43 0.247,-0.42C0.272,-0.41 0.3,-0.401 0.331,-0.393C0.361,-0.385 0.389,-0.374 0.415,-0.36C0.44,-0.345 0.462,-0.326 0.479,-0.302C0.496,-0.277 0.505,-0.244 0.505,-0.201C0.505,-0.167 0.499,-0.136 0.486,-0.109C0.472,-0.082 0.455,-0.059 0.433,-0.04C0.411,-0.021 0.385,-0.007 0.355,0.003C0.325,0.013 0.293,0.018 0.259,0.018C0.214,0.018 0.171,0.01 0.13,-0.006C0.089,-0.022 0.057,-0.047 0.033,-0.08L0.112,-0.148Z" style="fill-rule:nonzero;"/>
        </g>
        <g transform="matrix(14,0,0,14,74.834,27.4332)">
            <path d="M0.239,-0.618L0.011,-0.618L0.011,-0.708L0.563,-0.708L0.563,-0.618L0.335,-0.618L0.335,-0L0.239,-0L0.239,-0.618Z" style="fill-rule:nonzero;"/>
        </g>
        <g transform="matrix(14,0,0,14,82.87,27.4332)">
            <path d="M0.416,0.018C0.362,0.018 0.312,0.009 0.267,-0.011C0.222,-0.029 0.183,-0.056 0.151,-0.089C0.118,-0.122 0.093,-0.162 0.075,-0.207C0.056,-0.252 0.047,-0.301 0.047,-0.354C0.047,-0.407 0.056,-0.456 0.075,-0.501C0.093,-0.546 0.118,-0.586 0.151,-0.619C0.183,-0.652 0.222,-0.679 0.267,-0.698C0.312,-0.716 0.362,-0.726 0.416,-0.726C0.47,-0.726 0.52,-0.716 0.565,-0.698C0.61,-0.679 0.649,-0.652 0.682,-0.619C0.714,-0.586 0.739,-0.546 0.758,-0.501C0.776,-0.456 0.785,-0.407 0.785,-0.354C0.785,-0.301 0.776,-0.252 0.758,-0.207C0.739,-0.162 0.714,-0.122 0.682,-0.089C0.649,-0.056 0.61,-0.029 0.565,-0.011C0.52,0.009 0.47,0.018 0.416,0.018ZM0.416,-0.072C0.457,-0.072 0.493,-0.08 0.526,-0.095C0.559,-0.11 0.587,-0.13 0.61,-0.155C0.633,-0.18 0.651,-0.21 0.664,-0.245C0.677,-0.279 0.683,-0.315 0.683,-0.354C0.683,-0.393 0.677,-0.429 0.664,-0.464C0.651,-0.498 0.633,-0.528 0.61,-0.553C0.587,-0.578 0.559,-0.599 0.526,-0.614C0.493,-0.628 0.457,-0.636 0.416,-0.636C0.375,-0.636 0.339,-0.628 0.306,-0.614C0.273,-0.599 0.245,-0.578 0.222,-0.553C0.199,-0.528 0.181,-0.498 0.168,-0.464C0.155,-0.429 0.149,-0.393 0.149,-0.354C0.149,-0.315 0.155,-0.279 0.168,-0.245C0.181,-0.21 0.199,-0.18 0.222,-0.155C0.245,-0.13 0.273,-0.11 0.306,-0.095C0.339,-0.08 0.375,-0.072 0.416,-0.072Z" style="fill-rule:nonzero;"/>
        </g>
        <g transform="matrix(14,0,0,14,94.518,27.4332)">
            <path d="M0.584,-0.555C0.564,-0.581 0.539,-0.601 0.508,-0.615C0.477,-0.629 0.446,-0.636 0.413,-0.636C0.373,-0.636 0.337,-0.628 0.305,-0.614C0.272,-0.599 0.245,-0.578 0.222,-0.552C0.199,-0.526 0.181,-0.496 0.168,-0.461C0.155,-0.426 0.149,-0.388 0.149,-0.348C0.149,-0.311 0.155,-0.275 0.167,-0.242C0.179,-0.209 0.196,-0.179 0.219,-0.154C0.242,-0.129 0.269,-0.109 0.302,-0.094C0.335,-0.079 0.372,-0.072 0.413,-0.072C0.454,-0.072 0.489,-0.08 0.52,-0.097C0.551,-0.114 0.577,-0.137 0.598,-0.167L0.679,-0.106C0.674,-0.099 0.664,-0.088 0.651,-0.075C0.638,-0.061 0.62,-0.047 0.598,-0.034C0.576,-0.02 0.55,-0.008 0.519,0.003C0.488,0.013 0.452,0.018 0.411,0.018C0.355,0.018 0.305,0.007 0.26,-0.014C0.215,-0.035 0.176,-0.063 0.145,-0.098C0.113,-0.133 0.089,-0.172 0.072,-0.216C0.055,-0.259 0.047,-0.303 0.047,-0.348C0.047,-0.403 0.056,-0.453 0.074,-0.5C0.092,-0.546 0.117,-0.586 0.15,-0.62C0.182,-0.653 0.221,-0.679 0.266,-0.698C0.311,-0.717 0.361,-0.726 0.416,-0.726C0.463,-0.726 0.509,-0.717 0.554,-0.699C0.599,-0.681 0.635,-0.653 0.664,-0.616L0.584,-0.555Z" style="fill-rule:nonzero;"/>
        </g>
        <g transform="matrix(14,0,0,14,104.374,27.4332)">
            <path d="M0.091,-0.708L0.187,-0.708L0.187,-0.402L0.195,-0.402L0.508,-0.708L0.642,-0.708L0.3,-0.381L0.665,-0L0.525,-0L0.195,-0.354L0.187,-0.354L0.187,-0L0.091,-0L0.091,-0.708Z" style="fill-rule:nonzero;"/>
        </g>
    </g>
</svg>
